<svg id="visual" viewBox="0 0 1920 1080" width="1920" height="1080" xmlns="http://www.w3.org/2000/svg" xmlns:xlink="http://www.w3.org/1999/xlink" version="1.1"><rect x="0" y="0" width="1920" height="1080" fill="#ada6f2"></rect><g transform="translate(971.8920049572097 513.197776844328)"><path d="M200.7 -268.3C260 -233.2 307.9 -174.4 320.6 -110.1C333.4 -45.8 311.2 24.1 287.3 92.1C263.5 160.2 238.1 226.5 190 278.4C141.9 330.2 70.9 367.6 -0.4 368.2C-71.7 368.7 -143.4 332.4 -204.9 284.9C-266.4 237.4 -317.7 178.6 -337.8 111.1C-357.9 43.6 -346.8 -32.8 -320.6 -101.3C-294.3 -169.8 -253 -230.5 -197 -266.7C-141.1 -302.8 -70.5 -314.4 0.1 -314.6C70.7 -314.7 141.5 -303.4 200.7 -268.3" fill="#271bb1"></path></g></svg>