<svg id="visual" viewBox="0 0 1920 1080" width="1920" height="1080" xmlns="http://www.w3.org/2000/svg" xmlns:xlink="http://www.w3.org/1999/xlink" version="1.1"><path d="M0 679L29.2 682C58.3 685 116.7 691 174.8 705.3C233 719.7 291 742.3 349.2 759.2C407.3 776 465.7 787 523.8 769.5C582 752 640 706 698.2 695.8C756.3 685.7 814.7 711.3 872.8 731.5C931 751.7 989 766.3 1047.2 768.3C1105.3 770.3 1163.7 759.7 1221.8 744.5C1280 729.3 1338 709.7 1396.2 717.7C1454.3 725.7 1512.7 761.3 1570.8 751.5C1629 741.7 1687 686.3 1745.2 667.3C1803.3 648.3 1861.7 665.7 1890.8 674.3L1920 683L1920 1081L1890.8 1081C1861.7 1081 1803.3 1081 1745.2 1081C1687 1081 1629 1081 1570.8 1081C1512.7 1081 1454.3 1081 1396.2 1081C1338 1081 1280 1081 1221.8 1081C1163.7 1081 1105.3 1081 1047.2 1081C989 1081 931 1081 872.8 1081C814.7 1081 756.3 1081 698.2 1081C640 1081 582 1081 523.8 1081C465.7 1081 407.3 1081 349.2 1081C291 1081 233 1081 174.8 1081C116.7 1081 58.3 1081 29.2 1081L0 1081Z" fill="#f2a6d5"></path><path d="M0 754L29.2 758.5C58.3 763 116.7 772 174.8 760C233 748 291 715 349.2 702.8C407.3 690.7 465.7 699.3 523.8 715C582 730.7 640 753.3 698.2 752.5C756.3 751.7 814.7 727.3 872.8 733.3C931 739.3 989 775.7 1047.2 770.5C1105.3 765.3 1163.7 718.7 1221.8 698.5C1280 678.3 1338 684.7 1396.2 696.5C1454.3 708.3 1512.7 725.7 1570.8 743.3C1629 761 1687 779 1745.2 788.5C1803.3 798 1861.7 799 1890.8 799.5L1920 800L1920 1081L1890.8 1081C1861.7 1081 1803.3 1081 1745.2 1081C1687 1081 1629 1081 1570.8 1081C1512.7 1081 1454.3 1081 1396.2 1081C1338 1081 1280 1081 1221.8 1081C1163.7 1081 1105.3 1081 1047.2 1081C989 1081 931 1081 872.8 1081C814.7 1081 756.3 1081 698.2 1081C640 1081 582 1081 523.8 1081C465.7 1081 407.3 1081 349.2 1081C291 1081 233 1081 174.8 1081C116.7 1081 58.3 1081 29.2 1081L0 1081Z" fill="#de92c0"></path><path d="M0 842L29.2 844.7C58.3 847.3 116.7 852.7 174.8 852.3C233 852 291 846 349.2 845.7C407.3 845.3 465.7 850.7 523.8 833.7C582 816.7 640 777.3 698.2 760.5C756.3 743.7 814.7 749.3 872.8 747.3C931 745.3 989 735.7 1047.2 750.5C1105.3 765.3 1163.7 804.7 1221.8 801.3C1280 798 1338 752 1396.2 734.2C1454.3 716.3 1512.7 726.7 1570.8 737C1629 747.3 1687 757.7 1745.2 753.8C1803.3 750 1861.7 732 1890.8 723L1920 714L1920 1081L1890.8 1081C1861.7 1081 1803.3 1081 1745.2 1081C1687 1081 1629 1081 1570.8 1081C1512.7 1081 1454.3 1081 1396.2 1081C1338 1081 1280 1081 1221.8 1081C1163.7 1081 1105.3 1081 1047.2 1081C989 1081 931 1081 872.8 1081C814.7 1081 756.3 1081 698.2 1081C640 1081 582 1081 523.8 1081C465.7 1081 407.3 1081 349.2 1081C291 1081 233 1081 174.8 1081C116.7 1081 58.3 1081 29.2 1081L0 1081Z" fill="#ca7fac"></path><path d="M0 789L29.2 797.2C58.3 805.3 116.7 821.7 174.8 817C233 812.3 291 786.7 349.2 781C407.3 775.3 465.7 789.7 523.8 798.7C582 807.7 640 811.3 698.2 806.3C756.3 801.3 814.7 787.7 872.8 783.5C931 779.3 989 784.7 1047.2 788.7C1105.3 792.7 1163.7 795.3 1221.8 812C1280 828.7 1338 859.3 1396.2 855C1454.3 850.7 1512.7 811.3 1570.8 794.5C1629 777.7 1687 783.3 1745.2 788.2C1803.3 793 1861.7 797 1890.8 799L1920 801L1920 1081L1890.8 1081C1861.7 1081 1803.3 1081 1745.2 1081C1687 1081 1629 1081 1570.8 1081C1512.7 1081 1454.3 1081 1396.2 1081C1338 1081 1280 1081 1221.8 1081C1163.7 1081 1105.3 1081 1047.2 1081C989 1081 931 1081 872.8 1081C814.7 1081 756.3 1081 698.2 1081C640 1081 582 1081 523.8 1081C465.7 1081 407.3 1081 349.2 1081C291 1081 233 1081 174.8 1081C116.7 1081 58.3 1081 29.2 1081L0 1081Z" fill="#b66c98"></path><path d="M0 805L29.2 818.7C58.3 832.3 116.7 859.7 174.8 868.2C233 876.7 291 866.3 349.2 871.8C407.3 877.3 465.7 898.7 523.8 894.2C582 889.7 640 859.3 698.2 850.5C756.3 841.7 814.7 854.3 872.8 855.3C931 856.3 989 845.7 1047.2 844.2C1105.3 842.7 1163.7 850.3 1221.8 864.2C1280 878 1338 898 1396.2 907.2C1454.3 916.3 1512.7 914.7 1570.8 902.5C1629 890.3 1687 867.7 1745.2 856.7C1803.3 845.7 1861.7 846.3 1890.8 846.7L1920 847L1920 1081L1890.8 1081C1861.7 1081 1803.3 1081 1745.2 1081C1687 1081 1629 1081 1570.8 1081C1512.7 1081 1454.3 1081 1396.2 1081C1338 1081 1280 1081 1221.8 1081C1163.7 1081 1105.3 1081 1047.2 1081C989 1081 931 1081 872.8 1081C814.7 1081 756.3 1081 698.2 1081C640 1081 582 1081 523.8 1081C465.7 1081 407.3 1081 349.2 1081C291 1081 233 1081 174.8 1081C116.7 1081 58.3 1081 29.2 1081L0 1081Z" fill="#a35984"></path><path d="M0 908L29.2 908C58.3 908 116.7 908 174.8 900.7C233 893.3 291 878.7 349.2 874.2C407.3 869.7 465.7 875.3 523.8 885.2C582 895 640 909 698.2 921C756.3 933 814.7 943 872.8 942.7C931 942.3 989 931.7 1047.2 916.7C1105.3 901.7 1163.7 882.3 1221.8 870.8C1280 859.3 1338 855.7 1396.2 858.3C1454.3 861 1512.7 870 1570.8 879.8C1629 889.7 1687 900.3 1745.2 911.5C1803.3 922.7 1861.7 934.3 1890.8 940.2L1920 946L1920 1081L1890.8 1081C1861.7 1081 1803.3 1081 1745.2 1081C1687 1081 1629 1081 1570.8 1081C1512.7 1081 1454.3 1081 1396.2 1081C1338 1081 1280 1081 1221.8 1081C1163.7 1081 1105.3 1081 1047.2 1081C989 1081 931 1081 872.8 1081C814.7 1081 756.3 1081 698.2 1081C640 1081 582 1081 523.8 1081C465.7 1081 407.3 1081 349.2 1081C291 1081 233 1081 174.8 1081C116.7 1081 58.3 1081 29.2 1081L0 1081Z" fill="#904771"></path><path d="M0 936L29.2 941.5C58.3 947 116.7 958 174.8 954C233 950 291 931 349.2 928.5C407.3 926 465.7 940 523.8 948.5C582 957 640 960 698.2 965.5C756.3 971 814.7 979 872.8 973.7C931 968.3 989 949.7 1047.2 939.8C1105.3 930 1163.7 929 1221.8 933.5C1280 938 1338 948 1396.2 945.5C1454.3 943 1512.7 928 1570.8 921.3C1629 914.7 1687 916.3 1745.2 924.3C1803.3 932.3 1861.7 946.7 1890.8 953.8L1920 961L1920 1081L1890.8 1081C1861.7 1081 1803.3 1081 1745.2 1081C1687 1081 1629 1081 1570.8 1081C1512.7 1081 1454.3 1081 1396.2 1081C1338 1081 1280 1081 1221.8 1081C1163.7 1081 1105.3 1081 1047.2 1081C989 1081 931 1081 872.8 1081C814.7 1081 756.3 1081 698.2 1081C640 1081 582 1081 523.8 1081C465.7 1081 407.3 1081 349.2 1081C291 1081 233 1081 174.8 1081C116.7 1081 58.3 1081 29.2 1081L0 1081Z" fill="#7d345f"></path><path d="M0 1025L29.2 1022.3C58.3 1019.7 116.7 1014.3 174.8 1006.8C233 999.3 291 989.7 349.2 980C407.3 970.3 465.7 960.7 523.8 958.8C582 957 640 963 698.2 966.2C756.3 969.3 814.7 969.7 872.8 973.7C931 977.7 989 985.3 1047.2 992.7C1105.3 1000 1163.7 1007 1221.8 1009.8C1280 1012.7 1338 1011.3 1396.2 1009.2C1454.3 1007 1512.7 1004 1570.8 997.2C1629 990.3 1687 979.7 1745.2 982.2C1803.3 984.7 1861.7 1000.3 1890.8 1008.2L1920 1016L1920 1081L1890.8 1081C1861.7 1081 1803.3 1081 1745.2 1081C1687 1081 1629 1081 1570.8 1081C1512.7 1081 1454.3 1081 1396.2 1081C1338 1081 1280 1081 1221.8 1081C1163.7 1081 1105.3 1081 1047.2 1081C989 1081 931 1081 872.8 1081C814.7 1081 756.3 1081 698.2 1081C640 1081 582 1081 523.8 1081C465.7 1081 407.3 1081 349.2 1081C291 1081 233 1081 174.8 1081C116.7 1081 58.3 1081 29.2 1081L0 1081Z" fill="#6b224d"></path><path d="M0 1029L29.2 1031.5C58.3 1034 116.7 1039 174.8 1035.3C233 1031.7 291 1019.3 349.2 1014.2C407.3 1009 465.7 1011 523.8 1009C582 1007 640 1001 698.2 1005C756.3 1009 814.7 1023 872.8 1030.3C931 1037.7 989 1038.3 1047.2 1041.2C1105.3 1044 1163.7 1049 1221.8 1043.8C1280 1038.7 1338 1023.3 1396.2 1014.2C1454.3 1005 1512.7 1002 1570.8 1005.8C1629 1009.7 1687 1020.3 1745.2 1020.7C1803.3 1021 1861.7 1011 1890.8 1006L1920 1001L1920 1081L1890.8 1081C1861.7 1081 1803.3 1081 1745.2 1081C1687 1081 1629 1081 1570.8 1081C1512.7 1081 1454.3 1081 1396.2 1081C1338 1081 1280 1081 1221.8 1081C1163.7 1081 1105.3 1081 1047.2 1081C989 1081 931 1081 872.8 1081C814.7 1081 756.3 1081 698.2 1081C640 1081 582 1081 523.8 1081C465.7 1081 407.3 1081 349.2 1081C291 1081 233 1081 174.8 1081C116.7 1081 58.3 1081 29.2 1081L0 1081Z" fill="#590d3c"></path></svg>