<svg id="visual" viewBox="0 0 1920 1080" width="1920" height="1080" xmlns="http://www.w3.org/2000/svg" xmlns:xlink="http://www.w3.org/1999/xlink" version="1.1"><path d="M0 494L274 311L549 334L823 412L1097 371L1371 315L1646 379L1920 399L1920 1081L1646 1081L1371 1081L1097 1081L823 1081L549 1081L274 1081L0 1081Z" fill="#f2a6d5"></path><path d="M0 425L274 627L549 636L823 601L1097 561L1371 556L1646 423L1920 669L1920 1081L1646 1081L1371 1081L1097 1081L823 1081L549 1081L274 1081L0 1081Z" fill="#d683b5"></path><path d="M0 627L274 774L549 586L823 592L1097 627L1371 735L1646 589L1920 629L1920 1081L1646 1081L1371 1081L1097 1081L823 1081L549 1081L274 1081L0 1081Z" fill="#bb6196"></path><path d="M0 803L274 773L549 785L823 812L1097 748L1371 707L1646 780L1920 843L1920 1081L1646 1081L1371 1081L1097 1081L823 1081L549 1081L274 1081L0 1081Z" fill="#a03e78"></path><path d="M0 851L274 839L549 931L823 921L1097 989L1371 907L1646 851L1920 946L1920 1081L1646 1081L1371 1081L1097 1081L823 1081L549 1081L274 1081L0 1081Z" fill="#85145a"></path></svg>