<svg id="visual" viewBox="0 0 1920 1080" width="1920" height="1080" xmlns="http://www.w3.org/2000/svg" xmlns:xlink="http://www.w3.org/1999/xlink" version="1.1"><rect x="0" y="0" width="1920" height="1080" fill="#201c4c"></rect><defs><linearGradient id="grad1_0" x1="43.8%" y1="0%" x2="100%" y2="100%"><stop offset="14.444444444444446%" stop-color="#da8fbd" stop-opacity="1"></stop><stop offset="85.55555555555554%" stop-color="#da8fbd" stop-opacity="1"></stop></linearGradient></defs><defs><linearGradient id="grad1_1" x1="43.8%" y1="0%" x2="100%" y2="100%"><stop offset="14.444444444444446%" stop-color="#da8fbd" stop-opacity="1"></stop><stop offset="85.55555555555554%" stop-color="#ba79ab" stop-opacity="1"></stop></linearGradient></defs><defs><linearGradient id="grad1_2" x1="43.8%" y1="0%" x2="100%" y2="100%"><stop offset="14.444444444444446%" stop-color="#9b6498" stop-opacity="1"></stop><stop offset="85.55555555555554%" stop-color="#ba79ab" stop-opacity="1"></stop></linearGradient></defs><defs><linearGradient id="grad1_3" x1="43.8%" y1="0%" x2="100%" y2="100%"><stop offset="14.444444444444446%" stop-color="#9b6498" stop-opacity="1"></stop><stop offset="85.55555555555554%" stop-color="#7c5186" stop-opacity="1"></stop></linearGradient></defs><defs><linearGradient id="grad1_4" x1="43.8%" y1="0%" x2="100%" y2="100%"><stop offset="14.444444444444446%" stop-color="#5d3e73" stop-opacity="1"></stop><stop offset="85.55555555555554%" stop-color="#7c5186" stop-opacity="1"></stop></linearGradient></defs><defs><linearGradient id="grad1_5" x1="43.8%" y1="0%" x2="100%" y2="100%"><stop offset="14.444444444444446%" stop-color="#5d3e73" stop-opacity="1"></stop><stop offset="85.55555555555554%" stop-color="#3f2c5f" stop-opacity="1"></stop></linearGradient></defs><defs><linearGradient id="grad1_6" x1="43.8%" y1="0%" x2="100%" y2="100%"><stop offset="14.444444444444446%" stop-color="#201c4c" stop-opacity="1"></stop><stop offset="85.55555555555554%" stop-color="#3f2c5f" stop-opacity="1"></stop></linearGradient></defs><defs><linearGradient id="grad2_0" x1="0%" y1="0%" x2="56.3%" y2="100%"><stop offset="14.444444444444446%" stop-color="#da8fbd" stop-opacity="1"></stop><stop offset="85.55555555555554%" stop-color="#da8fbd" stop-opacity="1"></stop></linearGradient></defs><defs><linearGradient id="grad2_1" x1="0%" y1="0%" x2="56.3%" y2="100%"><stop offset="14.444444444444446%" stop-color="#ba79ab" stop-opacity="1"></stop><stop offset="85.55555555555554%" stop-color="#da8fbd" stop-opacity="1"></stop></linearGradient></defs><defs><linearGradient id="grad2_2" x1="0%" y1="0%" x2="56.3%" y2="100%"><stop offset="14.444444444444446%" stop-color="#ba79ab" stop-opacity="1"></stop><stop offset="85.55555555555554%" stop-color="#9b6498" stop-opacity="1"></stop></linearGradient></defs><defs><linearGradient id="grad2_3" x1="0%" y1="0%" x2="56.3%" y2="100%"><stop offset="14.444444444444446%" stop-color="#7c5186" stop-opacity="1"></stop><stop offset="85.55555555555554%" stop-color="#9b6498" stop-opacity="1"></stop></linearGradient></defs><defs><linearGradient id="grad2_4" x1="0%" y1="0%" x2="56.3%" y2="100%"><stop offset="14.444444444444446%" stop-color="#7c5186" stop-opacity="1"></stop><stop offset="85.55555555555554%" stop-color="#5d3e73" stop-opacity="1"></stop></linearGradient></defs><defs><linearGradient id="grad2_5" x1="0%" y1="0%" x2="56.3%" y2="100%"><stop offset="14.444444444444446%" stop-color="#3f2c5f" stop-opacity="1"></stop><stop offset="85.55555555555554%" stop-color="#5d3e73" stop-opacity="1"></stop></linearGradient></defs><defs><linearGradient id="grad2_6" x1="0%" y1="0%" x2="56.3%" y2="100%"><stop offset="14.444444444444446%" stop-color="#3f2c5f" stop-opacity="1"></stop><stop offset="85.55555555555554%" stop-color="#201c4c" stop-opacity="1"></stop></linearGradient></defs><g transform="translate(1920, 0)"><path d="M0 594C-27.5 541.6 -54.9 489.3 -84.2 477.6C-113.5 466 -144.7 495 -188.5 517.8C-232.2 540.5 -288.7 557 -297 514.4C-305.3 471.9 -265.6 370.3 -290.5 346.3C-315.5 322.2 -405.2 375.7 -449.7 377.3C-494.1 379 -493.4 328.7 -498.8 288C-504.2 247.3 -515.8 216 -499 181.6C-482.2 147.2 -437 109.8 -448.1 79C-459.2 48.2 -526.6 24.1 -594 0L0 0Z" fill="#302456"></path><path d="M0 509.1C-23.5 464.3 -47.1 419.4 -72.2 409.4C-97.3 399.4 -124 424.3 -161.5 443.8C-199.1 463.3 -247.4 477.4 -254.6 440.9C-261.7 404.5 -227.6 317.4 -249 296.8C-270.4 276.2 -347.3 322 -385.4 323.4C-423.6 324.8 -422.9 281.8 -427.6 246.9C-432.2 211.9 -442.1 185.1 -427.7 155.7C-413.3 126.2 -374.6 94.1 -384.1 67.7C-393.6 41.3 -451.4 20.7 -509.1 0L0 0Z" fill="#4e3569"></path><path d="M0 424.3C-19.6 386.9 -39.2 349.5 -60.2 341.2C-81.1 332.8 -103.3 353.6 -134.6 369.8C-165.9 386.1 -206.2 397.8 -212.1 367.4C-218.1 337 -189.7 264.5 -207.5 247.3C-225.4 230.1 -289.4 268.3 -321.2 269.5C-353 270.7 -352.4 234.8 -356.3 205.7C-360.2 176.6 -368.4 154.3 -356.4 129.7C-344.4 105.2 -312.1 78.4 -320.1 56.4C-328 34.4 -376.1 17.2 -424.3 0L0 0Z" fill="#6c477c"></path><path d="M0 339.4C-15.7 309.5 -31.4 279.6 -48.1 272.9C-64.9 266.3 -82.7 282.9 -107.7 295.9C-132.7 308.9 -165 318.3 -169.7 294C-174.5 269.6 -151.8 211.6 -166 197.9C-180.3 184.1 -231.5 214.7 -257 215.6C-282.4 216.5 -282 187.9 -285 164.6C-288.1 141.3 -294.7 123.4 -285.1 103.8C-275.5 84.1 -249.7 62.7 -256.1 45.1C-262.4 27.6 -300.9 13.8 -339.4 0L0 0Z" fill="#8b5a8f"></path><path d="M0 254.6C-11.8 232.1 -23.5 209.7 -36.1 204.7C-48.7 199.7 -62 212.2 -80.8 221.9C-99.5 231.7 -123.7 238.7 -127.3 220.5C-130.9 202.2 -113.8 158.7 -124.5 148.4C-135.2 138.1 -173.7 161 -192.7 161.7C-211.8 162.4 -211.5 140.9 -213.8 123.4C-216.1 106 -221.1 92.6 -213.8 77.8C-206.6 63.1 -187.3 47.1 -192 33.9C-196.8 20.7 -225.7 10.3 -254.6 0L0 0Z" fill="#aa6fa2"></path><path d="M0 169.7C-7.8 154.8 -15.7 139.8 -24.1 136.5C-32.4 133.1 -41.3 141.4 -53.8 147.9C-66.4 154.4 -82.5 159.1 -84.9 147C-87.2 134.8 -75.9 105.8 -83 98.9C-90.1 92.1 -115.8 107.3 -128.5 107.8C-141.2 108.3 -141 93.9 -142.5 82.3C-144.1 70.6 -147.4 61.7 -142.6 51.9C-137.8 42.1 -124.9 31.4 -128 22.6C-131.2 13.8 -150.5 6.9 -169.7 0L0 0Z" fill="#ca84b4"></path><path d="M0 84.9C-3.9 77.4 -7.8 69.9 -12 68.2C-16.2 66.6 -20.7 70.7 -26.9 74C-33.2 77.2 -41.2 79.6 -42.4 73.5C-43.6 67.4 -37.9 52.9 -41.5 49.5C-45.1 46 -57.9 53.7 -64.2 53.9C-70.6 54.1 -70.5 47 -71.3 41.1C-72 35.3 -73.7 30.9 -71.3 25.9C-68.9 21 -62.4 15.7 -64 11.3C-65.6 6.9 -75.2 3.4 -84.9 0L0 0Z" fill="#da8fbd"></path></g><g transform="translate(0, 1080)"><path d="M0 -594C32.5 -582.2 65.1 -570.5 100 -567.2C134.9 -564 172.3 -569.3 201.1 -552.5C230 -535.8 250.4 -497 271.5 -470.3C292.6 -443.5 314.5 -428.8 354.2 -422.1C393.8 -415.4 451.2 -416.6 455 -381.8C458.9 -347 409.3 -276.3 419.2 -242C429 -207.7 498.4 -209.9 522.5 -190.2C546.6 -170.4 525.4 -128.8 529.8 -93.4C534.2 -58.1 564.1 -29 594 0L0 0Z" fill="#302456"></path><path d="M0 -509.1C27.9 -499.1 55.8 -489 85.7 -486.2C115.7 -483.4 147.6 -488 172.4 -473.6C197.1 -459.2 214.6 -426 232.7 -403.1C250.8 -380.2 269.6 -367.6 303.6 -361.8C337.5 -356 386.7 -357.1 390 -327.3C393.3 -297.5 350.8 -236.8 359.3 -207.4C367.7 -178 427.2 -179.9 447.8 -163C468.5 -146.1 450.4 -110.4 454.1 -80.1C457.9 -49.8 483.5 -24.9 509.1 0L0 0Z" fill="#4e3569"></path><path d="M0 -424.3C23.2 -415.9 46.5 -407.5 71.4 -405.2C96.4 -402.9 123 -406.6 143.6 -394.7C164.3 -382.7 178.8 -355 193.9 -335.9C209 -316.8 224.7 -306.3 253 -301.5C281.3 -296.7 322.3 -297.6 325 -272.7C327.8 -247.9 292.4 -197.3 299.4 -172.9C306.4 -148.4 356 -149.9 373.2 -135.8C390.4 -121.7 375.3 -92 378.4 -66.7C381.6 -41.5 402.9 -20.7 424.3 0L0 0Z" fill="#6c477c"></path><path d="M0 -339.4C18.6 -332.7 37.2 -326 57.2 -324.1C77.1 -322.3 98.4 -325.3 114.9 -315.7C131.4 -306.2 143.1 -284 155.1 -268.7C167.2 -253.4 179.7 -245 202.4 -241.2C225 -237.3 257.8 -238 260 -218.2C262.2 -198.3 233.9 -157.9 239.5 -138.3C245.2 -118.7 284.8 -119.9 298.6 -108.7C312.3 -97.4 300.3 -73.6 302.8 -53.4C305.3 -33.2 322.3 -16.6 339.4 0L0 0Z" fill="#8b5a8f"></path><path d="M0 -254.6C13.9 -249.5 27.9 -244.5 42.9 -243.1C57.8 -241.7 73.8 -244 86.2 -236.8C98.6 -229.6 107.3 -213 116.4 -201.5C125.4 -190.1 134.8 -183.8 151.8 -180.9C168.8 -178 193.4 -178.5 195 -163.6C196.7 -148.7 175.4 -118.4 179.6 -103.7C183.9 -89 213.6 -90 223.9 -81.5C234.2 -73 225.2 -55.2 227.1 -40C228.9 -24.9 241.8 -12.4 254.6 0L0 0Z" fill="#aa6fa2"></path><path d="M0 -169.7C9.3 -166.4 18.6 -163 28.6 -162.1C38.6 -161.1 49.2 -162.7 57.5 -157.9C65.7 -153.1 71.5 -142 77.6 -134.4C83.6 -126.7 89.9 -122.5 101.2 -120.6C112.5 -118.7 128.9 -119 130 -109.1C131.1 -99.2 116.9 -78.9 119.8 -69.1C122.6 -59.3 142.4 -60 149.3 -54.3C156.2 -48.7 150.1 -36.8 151.4 -26.7C152.6 -16.6 161.2 -8.3 169.7 0L0 0Z" fill="#ca84b4"></path><path d="M0 -84.9C4.6 -83.2 9.3 -81.5 14.3 -81C19.3 -80.6 24.6 -81.3 28.7 -78.9C32.9 -76.5 35.8 -71 38.8 -67.2C41.8 -63.4 44.9 -61.3 50.6 -60.3C56.3 -59.3 64.5 -59.5 65 -54.5C65.6 -49.6 58.5 -39.5 59.9 -34.6C61.3 -29.7 71.2 -30 74.6 -27.2C78.1 -24.3 75.1 -18.4 75.7 -13.3C76.3 -8.3 80.6 -4.1 84.9 0L0 0Z" fill="#da8fbd"></path></g></svg>