<svg id="visual" viewBox="0 0 1920 1080" width="1920" height="1080" xmlns="http://www.w3.org/2000/svg" xmlns:xlink="http://www.w3.org/1999/xlink" version="1.1"><path d="M0 55L320 44L640 55L960 33L1280 33L1600 55L1920 55L1920 0L1600 0L1280 0L960 0L640 0L320 0L0 0Z" fill="#eae8fc"></path><path d="M0 141L320 109L640 109L960 87L1280 77L1600 109L1920 98L1920 53L1600 53L1280 31L960 31L640 53L320 42L0 53Z" fill="#d9d5f8"></path><path d="M0 347L320 239L640 217L960 347L1280 282L1600 401L1920 282L1920 96L1600 107L1280 75L960 85L640 107L320 107L0 139Z" fill="#c8c1f4"></path><path d="M0 390L320 271L640 282L960 411L1280 314L1600 444L1920 347L1920 280L1600 399L1280 280L960 345L640 215L320 237L0 345Z" fill="#b7aeef"></path><path d="M0 530L320 379L640 390L960 498L1280 465L1600 541L1920 519L1920 345L1600 442L1280 312L960 409L640 280L320 269L0 388Z" fill="#a79bea"></path><path d="M0 563L320 433L640 433L960 541L1280 498L1600 573L1920 573L1920 517L1600 539L1280 463L960 496L640 388L320 377L0 528Z" fill="#9688e5"></path><path d="M0 660L320 519L640 519L960 617L1280 606L1600 660L1920 671L1920 571L1600 571L1280 496L960 539L640 431L320 431L0 561Z" fill="#8676df"></path><path d="M0 757L320 595L640 627L960 692L1280 692L1600 735L1920 746L1920 669L1600 658L1280 604L960 615L640 517L320 517L0 658Z" fill="#7563d9"></path><path d="M0 800L320 617L640 671L960 714L1280 735L1600 789L1920 768L1920 744L1600 733L1280 690L960 690L640 625L320 593L0 755Z" fill="#6350d2"></path><path d="M0 984L320 930L640 919L960 962L1280 984L1600 951L1920 995L1920 766L1600 787L1280 733L960 712L640 669L320 615L0 798Z" fill="#503dcb"></path><path d="M0 1038L320 1049L640 1027L960 1038L1280 1049L1600 1038L1920 1038L1920 993L1600 949L1280 982L960 960L640 917L320 928L0 982Z" fill="#3b29c4"></path><path d="M0 1081L320 1081L640 1081L960 1081L1280 1081L1600 1081L1920 1081L1920 1036L1600 1036L1280 1047L960 1036L640 1025L320 1047L0 1036Z" fill="#1b0fbc"></path></svg>