<svg id="visual" viewBox="0 0 1920 1080" width="1920" height="1080" xmlns="http://www.w3.org/2000/svg" xmlns:xlink="http://www.w3.org/1999/xlink" version="1.1"><rect x="0" y="0" width="1920" height="1080" fill="#fce9f4"></rect><path d="M0 540L29.2 550.8C58.3 561.7 116.7 583.3 174.8 604.5C233 625.7 291 646.3 349.2 623.2C407.3 600 465.7 533 523.8 500.2C582 467.3 640 468.7 698.2 467.2C756.3 465.7 814.7 461.3 872.8 537C931 612.7 989 768.3 1047.2 802.7C1105.3 837 1163.7 750 1221.8 759C1280 768 1338 873 1396.2 921.2C1454.3 969.3 1512.7 960.7 1570.8 868C1629 775.3 1687 598.7 1745.2 599.2C1803.3 599.7 1861.7 777.3 1890.8 866.2L1920 955L1920 1081L1890.8 1081C1861.7 1081 1803.3 1081 1745.2 1081C1687 1081 1629 1081 1570.8 1081C1512.7 1081 1454.3 1081 1396.2 1081C1338 1081 1280 1081 1221.8 1081C1163.7 1081 1105.3 1081 1047.2 1081C989 1081 931 1081 872.8 1081C814.7 1081 756.3 1081 698.2 1081C640 1081 582 1081 523.8 1081C465.7 1081 407.3 1081 349.2 1081C291 1081 233 1081 174.8 1081C116.7 1081 58.3 1081 29.2 1081L0 1081Z" fill="#311de2" stroke-linecap="round" stroke-linejoin="miter"></path></svg>